<svg width="20" height="21" viewBox="0 0 20 21" fill="none" xmlns="http://www.w3.org/2000/svg">
<path fill-rule="evenodd" clip-rule="evenodd" d="M2.97712 2.5L1.87793 3.58126L16.0226 17.5L17.1218 16.4184L2.97712 2.5V2.5Z" fill="black" fill-opacity="0.6"/>
<path d="M4.20032 5.86632L5.23492 6.88437C4.10236 7.83326 3.20051 9.0144 2.61773 10.0478L2.61595 10.0513C4.23901 12.7216 6.81431 15.2453 10.0647 14.8625C10.942 14.7591 11.7605 14.464 12.5083 14.0418L13.5557 15.072C12.098 15.9926 10.4271 16.4802 8.6166 16.2392C5.35204 15.8047 2.68268 13.17 1 10.0758C1.79005 8.51149 2.87079 7.01498 4.20032 5.86632V5.86632ZM6.55345 4.35759C7.4663 3.95736 8.45405 3.72197 9.50887 3.7052C9.56744 3.70485 10.2627 3.73733 10.5779 3.78832C10.7756 3.82045 10.9726 3.86062 11.1667 3.91056C14.2634 4.70439 16.5576 7.28041 18 9.93431C17.3949 11.1368 16.6023 12.3102 15.6572 13.3157L14.6538 12.3284C15.3519 11.588 15.934 10.7638 16.3823 9.96434C16.3823 9.96434 15.9315 9.25119 15.5897 8.80346C15.37 8.51568 15.139 8.23629 14.8962 7.96702C14.7046 7.75468 13.9603 7.03349 13.7832 6.88332C12.5949 5.87785 11.1997 5.08891 9.52626 5.10218C8.87818 5.1123 8.25494 5.23803 7.66328 5.44967L6.55345 4.35759V4.35759Z" fill="black" fill-opacity="0.6"/>
<path fill-rule="evenodd" clip-rule="evenodd" d="M7.01656 8.63802L7.81524 9.4236L10.8895 12.4486C10.4785 12.6756 10.0043 12.8048 9.49994 12.8048C7.92942 12.8048 6.65454 11.5504 6.65454 10.005C6.65454 9.50869 6.78622 9.04245 7.01656 8.63802ZM9.44741 7.20578C9.4648 7.20543 9.48255 7.20508 9.49994 7.20508C11.0705 7.20508 12.3453 8.45991 12.3453 10.005C12.3453 10.0224 12.3453 10.0395 12.345 10.0567L9.44741 7.20578Z" fill="black" fill-opacity="0.6"/>
</svg>
