<svg width="13" height="13" viewBox="0 0 13 13" fill="none" xmlns="http://www.w3.org/2000/svg">
<g clip-path="url(#clip0_131_1956)">
<path d="M10.8456 5.14288C10.8456 8.64288 6.34561 11.6429 6.34561 11.6429C6.34561 11.6429 1.84561 8.64288 1.84561 5.14288C1.84561 3.94941 2.31972 2.80482 3.16363 1.9609C4.00754 1.11699 5.15214 0.642883 6.34561 0.642883C7.53909 0.642883 8.68368 1.11699 9.52759 1.9609C10.3715 2.80482 10.8456 3.94941 10.8456 5.14288Z" stroke="white" stroke-linecap="round" stroke-linejoin="round"/>
<path d="M6.34561 6.64288C7.17404 6.64288 7.84561 5.97131 7.84561 5.14288C7.84561 4.31446 7.17404 3.64288 6.34561 3.64288C5.51718 3.64288 4.84561 4.31446 4.84561 5.14288C4.84561 5.97131 5.51718 6.64288 6.34561 6.64288Z" stroke="white" stroke-linecap="round" stroke-linejoin="round"/>
</g>
<defs>
<clipPath id="clip0_131_1956">
<rect width="12" height="12" fill="white" transform="translate(0.345612 0.142883)"/>
</clipPath>
</defs>
</svg>
