<svg width="11" height="12" viewBox="0 0 11 12" fill="none" xmlns="http://www.w3.org/2000/svg">
<g clip-path="url(#clip0_131_2007)">
<path d="M9.34755 5.02377C9.34755 8.03564 5.34146 10.6172 5.34146 10.6172C5.34146 10.6172 1.33536 8.03564 1.33536 5.02377C1.33536 3.99675 1.75743 3.01178 2.50872 2.28557C3.26001 1.55935 4.27897 1.15137 5.34146 1.15137C6.40394 1.15137 7.4229 1.55935 8.17419 2.28557C8.92548 3.01178 9.34755 3.99675 9.34755 5.02377Z" stroke="white" stroke-linecap="round" stroke-linejoin="round"/>
<path d="M5.34147 6.31451C6.07897 6.31451 6.67684 5.7366 6.67684 5.02371C6.67684 4.31082 6.07897 3.73291 5.34147 3.73291C4.60397 3.73291 4.0061 4.31082 4.0061 5.02371C4.0061 5.7366 4.60397 6.31451 5.34147 6.31451Z" stroke="white" stroke-linecap="round" stroke-linejoin="round"/>
</g>
<defs>
<clipPath id="clip0_131_2007">
<rect width="10.6829" height="10.3264" fill="white" transform="translate(0 0.721069)"/>
</clipPath>
</defs>
</svg>
