<svg width="14" height="15" viewBox="0 0 14 15" fill="none" xmlns="http://www.w3.org/2000/svg">
<g clip-path="url(#clip0_120_3695)">
<path d="M12.0689 6.04595C12.0689 10.0689 6.89653 13.5172 6.89653 13.5172C6.89653 13.5172 1.72412 10.0689 1.72412 6.04595C1.72412 4.67414 2.26907 3.35852 3.23909 2.3885C4.2091 1.41848 5.52473 0.873535 6.89653 0.873535C8.26834 0.873535 9.58397 1.41848 10.554 2.3885C11.524 3.35852 12.0689 4.67414 12.0689 6.04595Z" stroke="white" stroke-linecap="round" stroke-linejoin="round"/>
<path d="M6.8965 7.77005C7.84872 7.77005 8.62064 6.99813 8.62064 6.04592C8.62064 5.0937 7.84872 4.32178 6.8965 4.32178C5.94429 4.32178 5.17236 5.0937 5.17236 6.04592C5.17236 6.99813 5.94429 7.77005 6.8965 7.77005Z" stroke="white" stroke-linecap="round" stroke-linejoin="round"/>
</g>
<defs>
<clipPath id="clip0_120_3695">
<rect width="13.7931" height="13.7931" fill="white" transform="translate(0 0.298828)"/>
</clipPath>
</defs>
</svg>
