<svg width="12" height="13" viewBox="0 0 12 13" fill="none" xmlns="http://www.w3.org/2000/svg">
<g clip-path="url(#clip0_131_1594)">
<path d="M10.5 5.70703C10.5 9.20703 6 12.207 6 12.207C6 12.207 1.5 9.20703 1.5 5.70703C1.5 4.51356 1.97411 3.36896 2.81802 2.52505C3.66193 1.68114 4.80653 1.20703 6 1.20703C7.19347 1.20703 8.33807 1.68114 9.18198 2.52505C10.0259 3.36896 10.5 4.51356 10.5 5.70703Z" stroke="white" stroke-linecap="round" stroke-linejoin="round"/>
<path d="M6 7.20703C6.82843 7.20703 7.5 6.53546 7.5 5.70703C7.5 4.8786 6.82843 4.20703 6 4.20703C5.17157 4.20703 4.5 4.8786 4.5 5.70703C4.5 6.53546 5.17157 7.20703 6 7.20703Z" stroke="white" stroke-linecap="round" stroke-linejoin="round"/>
</g>
<defs>
<clipPath id="clip0_131_1594">
<rect width="12" height="12" fill="white" transform="translate(0 0.707031)"/>
</clipPath>
</defs>
</svg>
