<svg width="12" height="12" viewBox="0 0 12 12" fill="none" xmlns="http://www.w3.org/2000/svg">
<g clip-path="url(#clip0_120_1288)">
<path d="M10.5 5.02436C10.5 8.03655 6 10.6184 6 10.6184C6 10.6184 1.5 8.03655 1.5 5.02436C1.5 3.99723 1.97411 3.01216 2.81802 2.28587C3.66193 1.55958 4.80653 1.15155 6 1.15155C7.19347 1.15155 8.33807 1.55958 9.18198 2.28587C10.0259 3.01216 10.5 3.99723 10.5 5.02436Z" stroke="black" stroke-linecap="round" stroke-linejoin="round"/>
<path d="M6 6.31533C6.82843 6.31533 7.5 5.73736 7.5 5.0244C7.5 4.31143 6.82843 3.73346 6 3.73346C5.17157 3.73346 4.5 4.31143 4.5 5.0244C4.5 5.73736 5.17157 6.31533 6 6.31533Z" stroke="black" stroke-linecap="round" stroke-linejoin="round"/>
</g>
<defs>
<clipPath id="clip0_120_1288">
<rect width="12" height="10.3275" fill="white" transform="translate(0 0.721252)"/>
</clipPath>
</defs>
</svg>
