<svg width="14" height="15" viewBox="0 0 14 15" fill="none" xmlns="http://www.w3.org/2000/svg">
<g clip-path="url(#clip0_120_3695)">
<path d="M12.1403 6.04595C12.1403 10.0689 6.95425 13.5172 6.95425 13.5172C6.95425 13.5172 1.76819 10.0689 1.76819 6.04595C1.76819 4.67414 2.31458 3.35852 3.28715 2.3885C4.25973 1.41848 5.57882 0.873535 6.95425 0.873535C8.32968 0.873535 9.64877 1.41848 10.6213 2.3885C11.5939 3.35852 12.1403 4.67414 12.1403 6.04595Z" stroke="white" stroke-linecap="round" stroke-linejoin="round"/>
<path d="M6.95427 7.77005C7.909 7.77005 8.68296 6.99813 8.68296 6.04592C8.68296 5.0937 7.909 4.32178 6.95427 4.32178C5.99955 4.32178 5.22559 5.0937 5.22559 6.04592C5.22559 6.99813 5.99955 7.77005 6.95427 7.77005Z" stroke="white" stroke-linecap="round" stroke-linejoin="round"/>
</g>
<defs>
<clipPath id="clip0_120_3695">
<rect width="13.8295" height="13.7931" fill="white" transform="translate(0.0395508 0.298828)"/>
</clipPath>
</defs>
</svg>
