<svg width="11" height="11" viewBox="0 0 11 11" fill="none" xmlns="http://www.w3.org/2000/svg">
<g clip-path="url(#clip0_120_1272)">
<path d="M9.38417 4.36801C9.38417 7.37988 5.37808 9.96148 5.37808 9.96148C5.37808 9.96148 1.37198 7.37988 1.37198 4.36801C1.37198 3.34098 1.79405 2.35602 2.54534 1.62981C3.29663 0.90359 4.31559 0.495605 5.37808 0.495605C6.44056 0.495605 7.45953 0.90359 8.21082 1.62981C8.9621 2.35602 9.38417 3.34098 9.38417 4.36801Z" stroke="black" stroke-linecap="round" stroke-linejoin="round"/>
<path d="M5.37809 5.65875C6.11559 5.65875 6.71346 5.08084 6.71346 4.36795C6.71346 3.65506 6.11559 3.07715 5.37809 3.07715C4.64059 3.07715 4.04272 3.65506 4.04272 4.36795C4.04272 5.08084 4.64059 5.65875 5.37809 5.65875Z" stroke="black" stroke-linecap="round" stroke-linejoin="round"/>
</g>
<defs>
<clipPath id="clip0_120_1272">
<rect width="10.6829" height="10.3264" fill="white" transform="translate(0.0366211 0.0653076)"/>
</clipPath>
</defs>
</svg>
