<svg width="67" height="12" viewBox="0 0 67 12" fill="none" xmlns="http://www.w3.org/2000/svg">
<path opacity="0.35" d="M44.9999 1.16663H61.6666C62.8632 1.16663 63.8333 2.13668 63.8333 3.33329V9.33329C63.8333 10.5299 62.8632 11.5 61.6666 11.5H44.9999C43.8033 11.5 42.8333 10.5299 42.8333 9.33329V3.33329C42.8333 2.13667 43.8033 1.16663 44.9999 1.16663Z" stroke="black"/>
<path opacity="0.4" d="M65.3333 4.33325V8.33325C66.138 7.99448 66.6613 7.20639 66.6613 6.33325C66.6613 5.46012 66.138 4.67203 65.3333 4.33325" fill="black"/>
<path d="M44.3333 3.76663C44.3333 3.15911 44.8257 2.66663 45.4333 2.66663H61.2333C61.8408 2.66663 62.3333 3.15911 62.3333 3.76663V8.89996C62.3333 9.50747 61.8408 9.99996 61.2333 9.99996H45.4333C44.8257 9.99996 44.3333 9.50747 44.3333 8.89996V3.76663Z" fill="black"/>
<path fill-rule="evenodd" clip-rule="evenodd" d="M29.6637 2.94127C31.8796 2.94136 34.0108 3.7928 35.6167 5.3196C35.7376 5.43748 35.9309 5.43599 36.05 5.31627L37.206 4.1496C37.2663 4.08888 37.3 4.00663 37.2995 3.92105C37.299 3.83547 37.2644 3.75361 37.2034 3.6936C32.9883 -0.345946 26.3385 -0.345946 22.1234 3.6936C22.0623 3.75357 22.0277 3.8354 22.0271 3.92098C22.0265 4.00656 22.0601 4.08883 22.1204 4.1496L23.2767 5.31627C23.3957 5.43617 23.5892 5.43766 23.71 5.3196C25.3162 3.7927 27.4476 2.94126 29.6637 2.94127ZM29.6637 6.73693C30.8812 6.73686 32.0552 7.18939 32.9577 8.0066C33.0798 8.12258 33.272 8.12007 33.391 8.00093L34.5457 6.83427C34.6065 6.77307 34.6403 6.69006 34.6394 6.60379C34.6385 6.51753 34.6031 6.43521 34.541 6.37527C31.7928 3.81889 27.5369 3.81889 24.7887 6.37527C24.7266 6.43521 24.6912 6.51757 24.6904 6.60386C24.6896 6.69015 24.7234 6.77316 24.7844 6.83427L25.9387 8.00093C26.0577 8.12007 26.25 8.12258 26.372 8.0066C27.2739 7.18993 28.447 6.73744 29.6637 6.73693ZM31.9767 9.29075C31.9785 9.37726 31.9445 9.46066 31.8827 9.52127L29.8854 11.5369C29.8268 11.5962 29.747 11.6295 29.6637 11.6295C29.5804 11.6295 29.5006 11.5962 29.442 11.5369L27.4444 9.52127C27.3827 9.46062 27.3487 9.37719 27.3505 9.29068C27.3524 9.20417 27.3898 9.12226 27.454 9.06427C28.7296 7.98538 30.5978 7.98538 31.8734 9.06427C31.9375 9.1223 31.9749 9.20425 31.9767 9.29075Z" fill="black"/>
<path fill-rule="evenodd" clip-rule="evenodd" d="M16 0.999878H15C14.4477 0.999878 14 1.44759 14 1.99988V10.6665C14 11.2188 14.4477 11.6665 15 11.6665H16C16.5523 11.6665 17 11.2188 17 10.6665V1.99988C17 1.44759 16.5523 0.999878 16 0.999878ZM10.3333 3.33321H11.3333C11.8856 3.33321 12.3333 3.78093 12.3333 4.33321V10.6665C12.3333 11.2188 11.8856 11.6665 11.3333 11.6665H10.3333C9.78105 11.6665 9.33333 11.2188 9.33333 10.6665V4.33321C9.33333 3.78093 9.78105 3.33321 10.3333 3.33321ZM6.66667 5.66654H5.66667C5.11438 5.66654 4.66667 6.11426 4.66667 6.66654V10.6665C4.66667 11.2188 5.11438 11.6665 5.66667 11.6665H6.66667C7.21895 11.6665 7.66667 11.2188 7.66667 10.6665V6.66654C7.66667 6.11426 7.21895 5.66654 6.66667 5.66654ZM2 7.66654H1C0.447715 7.66654 0 8.11426 0 8.66654V10.6665C0 11.2188 0.447715 11.6665 1 11.6665H2C2.55228 11.6665 3 11.2188 3 10.6665V8.66654C3 8.11426 2.55228 7.66654 2 7.66654Z" fill="black"/>
</svg>
