<svg width="28" height="28" viewBox="0 0 28 28" fill="none" xmlns="http://www.w3.org/2000/svg">
<path d="M11.4453 13.0107C11.4453 14.9199 12.6738 16.2646 14.4668 16.2646C16.2515 16.2646 17.48 14.9199 17.48 13.0107V7.78955C17.48 5.87207 16.2515 4.53564 14.4668 4.53564C12.6738 4.53564 11.4453 5.87207 11.4453 7.78955V13.0107ZM12.6987 13.0107V7.78955C12.6987 6.56104 13.4043 5.77246 14.4668 5.77246C15.5293 5.77246 16.2266 6.56104 16.2266 7.78955V13.0107C16.2266 14.2393 15.5293 15.0278 14.4668 15.0278C13.4043 15.0278 12.6987 14.2393 12.6987 13.0107ZM8.52344 13.3096C8.52344 16.5635 10.6733 18.8462 13.8359 19.1118V21.0459H10.7563C10.4077 21.0459 10.1255 21.3281 10.1255 21.6768C10.1255 22.0254 10.4077 22.2993 10.7563 22.2993H18.1689C18.5176 22.2993 18.7998 22.0254 18.7998 21.6768C18.7998 21.3281 18.5176 21.0459 18.1689 21.0459H15.0894V19.1118C18.2603 18.8462 20.4019 16.5635 20.4019 13.3096V11.6245C20.4019 11.2759 20.1279 11.002 19.7793 11.002C19.4307 11.002 19.1484 11.2759 19.1484 11.6245V13.2598C19.1484 16.0903 17.3057 17.9663 14.4668 17.9663C11.6196 17.9663 9.77686 16.0903 9.77686 13.2598V11.6245C9.77686 11.2759 9.50293 11.002 9.146 11.002C8.79736 11.002 8.52344 11.2759 8.52344 11.6245V13.3096Z" fill="#3C3C43" fill-opacity="0.6"/>
</svg>
